<svg xmlns="http://www.w3.org/2000/svg" width="1250" height="536.624" viewBox="0 0 1250 536.624"><defs><style>.cls-1{fill:#fff;}.cls-2{fill:#0b5684;}</style></defs><title>American-Express-v2-1994</title><g id="American_Express_v2_1994"><path class="cls-1" d="M144.2.649h553.072l-144.201 535.975h-553.071l144.2-535.975z"/><path d="M697.272.649h-553.072l-3.229 12.001h553.072l3.229-12.001zM475.649 36.138c1.292.67 2.414 1.554 3.675 2.264h207.791l3.229-12.001h-239.593a128.385 128.385 0 0 1 24.898 9.737zM372.978 26.402h-235.707l-3.229 12.001h203.793a213.341 213.341 0 0 1 35.143-12.001zM310.277 52.573h-180.046l-3.229 12.001h164.727q9.177-6.456 18.548-12.001zM511.73 64.574h168.343l3.229-12.001h-183.86a130.564 130.564 0 0 1 12.288 12.001zM272.366 79.399h-149.353l-3.229 12.001h138.861c4.504-4.184 9.09-8.159 13.721-12.001zM530.747 91.4h142.109l3.229-12.001h-152.765c2.625 3.869 5.136 7.831 7.427 12.001zM542.004 116.811h124.016l3.229-12.001h-131.733c1.678 3.864 3.064 7.946 4.489 12.001zM245.055 104.811h-128.879l-3.229 12.001h121.061q5.426-6.184 11.047-12.001zM549.41 143.256h109.494l3.228-12.001h-115.73c1.051 3.971 2.183 7.887 3.008 12.001zM221.978 131.255h-112.917l-3.229 12.001h107.071q4.452-6.127 9.075-12.001zM203.161 157.32h-101.112l-3.229 12.001h96.729q3.717-6.11 7.612-12.001zM552.908 169.321h98.984l3.229-12.001h-103.529c.534 3.956.978 7.945 1.316 12.001zM553.67 196.157h91.001l3.229-12.001h-94.059c.095 3.941-.089 7.989-.171 12.001zM186.759 184.429l.156-.273h-92.086l-3.229 12.001h89.243c1.976-3.909 3.782-7.839 5.916-11.728zM173.751 210.542h-86.021l-3.229 12.001h84.216c1.655-4.002 3.219-8.008 5.034-12.001zM551.899 222.543h85.673l3.229-12.001h-87.661c-.285 3.961-.786 7.988-1.241 12.001zM163.124 236.585h-82.401l-3.229 12.001h81.567c1.308-3.998 2.597-7.996 4.063-12.001zM547.851 248.586h82.715l3.229-12.001h-83.76c-.637 3.982-1.384 7.986-2.184 12.001zM541.725 274.135h81.967l3.229-12.001h-82.079c-.971 3.992-1.986 7.989-3.117 12.001zM154.863 262.134h-81.014l-3.229 12.001h81.125c.974-3.993 1.983-7.988 3.118-12.001zM533.097 300.828h83.414l3.229-12.001h-82.581c-1.319 3.999-2.583 7.996-4.062 12.001zM148.509 288.826h-81.841l-3.229 12.001h82.886c.624-3.978 1.394-7.987 2.184-12.001zM521.989 327.844h87.253l3.229-12.001h-85.448c-1.678 4.002-3.194 8.01-5.034 12.001zM144.429 315.844h-85.03l-3.229 12.001h87.018c.26-3.953.813-7.996 1.241-12.001zM509.761 352.1c-.414.755-.856 1.478-1.274 2.228h93.63l3.229-12.001h-90.655c-1.669 3.255-3.152 6.532-4.93 9.772zM142.807 342.328h-90.533l-3.229 12.001h93.757c-.124-3.95-.049-7.976.005-12.001zM492.708 380.184h102.452l3.229-12.001h-98.021q-3.743 6.108-7.66 12.001zM143.674 368.183h-98.356l-3.229 12.001h102.991c-.553-3.96-1.051-7.937-1.406-12.001zM473.368 406.79h114.634l3.229-12.001h-108.705c-2.998 4.083-6.04 8.099-9.158 12.001zM147.42 394.789h-109.261l-3.229 12.001h115.577c-1.081-3.967-2.23-7.891-3.087-12.001zM450.794 432.418h130.313l3.229-12.001h-122.45q-5.452 6.18-11.092 12.001zM154.778 420.417h-123.514l-3.229 12.001h131.233c-1.693-3.852-3.051-7.957-4.49-12.001zM422.399 458.597h151.666l3.228-12.001h-141.047q-6.829 6.258-13.847 12.001zM166.524 446.596h-142.303l-3.229 12.001h153.206c-2.699-3.875-5.316-7.817-7.674-12.001zM384.87 484.776h182.15l3.229-12.001h-166.607q-9.289 6.467-18.772 12.001zM185.525 472.775h-168.347l-3.229 12.001h184.106a130.144 130.144 0 0 1-12.53-12.001zM220.872 500.392c-.454-.236-.84-.556-1.291-.796h-209.62l-3.222 11.978h244.928a128.91 128.91 0 0 1-30.795-11.182zM316.837 511.573h242.974l3.222-11.977h-207.754a206.983 206.983 0 0 1-38.443 11.978zM0 536.624h553.071l2.923-10.865h-553.071l-2.923 10.865zM466.835 50.667c-17.986-9.363-38.003-14.111-59.496-14.111-76.855 0-161.995 61.222-211.858 152.345-65.622 119.919-50.701 253.039 33.26 296.75 17.985 9.362 38.007 14.111 59.502 14.111 76.85 0 161.99-61.226 211.852-152.345 65.623-119.92 50.703-253.042-33.26-296.751zm24.2 293.108h-51.036a22.637 22.637 0 0 0 .408-9.51h55.475c-1.489 2.908-2.811 5.837-4.395 8.732l-.452.778zm-287.571 74.456h-23.817c-1.395-3.113-2.578-6.383-3.786-9.643h39.402zm-10.787 8.816l-6.059 4.951c-.925-1.581-1.663-3.32-2.532-4.951h8.591zm50.313-127.175c-5.739-4.203-17.491-23.895-19.975-52.43-2.076-23.84 2.052-59.051 33.505-91.406 5.462-5.619 10.836-10.576 16.118-15.069 7.256-2.293 20.416-3.986 33.169 1.492 30.133 17.812 49.69 57.774 66.149 99.077l-42.458 17.286c-4.45-4.172-10.351-6.789-17.797-7.554-9.675-.994-20.125 2.957-27.272 10.312-4.817 4.957-10.38 13.715-9.523 27.298a34.562 34.562 0 0 0 21.594 30.573l-13.723 45.088h-63.947l27.145-62.481zm215.359-215.37h35.982c2.646 2.985 5.208 6.044 7.575 9.312h-49.312c1.916-3.21 3.826-6.316 5.755-9.312zm5.393-8.11c2.564-3.717 5.299-7.484 8.211-11.39a111.651 111.651 0 0 1 14.624 11.39h-22.835zm-16.337 26.395h60.526c1.726 2.857 3.245 5.888 4.783 8.911h-70.199q2.522-4.695 4.89-8.911zm-9.083 16.833h78.381c1.416 3.257 2.547 6.732 3.76 10.146h-63.458c-.664-.798-1.201-1.571-1.9-2.377l-3.33-3.835-3.894 3.328c-1.032.882-2.3 1.85-3.417 2.765-2.516-2.632-5.014-5.162-7.492-7.444.461-.89.898-1.721 1.35-2.583zm-85.075 60.255a44.931 44.931 0 0 0 13.481 1.201h.074c22.933-.003 63.726-27.62 83.779-43.869 14.541 18.049 19.346 33.833 22.768 48.959v4.81c-13.812-3.521-31.515-.689-45.458 2.978a244.735 244.735 0 0 0-55.805 22.944 324.322 324.322 0 0 0-18.839-37.023zm133.591 21.177l-.564-2.468c-.493-2.155-.959-4.346-1.43-6.556h46.503c.057 2.964-.108 6.014-.162 9.024h-44.347zm-3.912-17.724c-.695-3.022-1.5-6.125-2.396-9.278h49.767c.301 3.035.365 6.183.542 9.278h-47.913zm-5.124-17.74c-1.161-3.239-2.504-6.542-4.088-9.92h53.908c.621 3.234 1.019 6.596 1.486 9.92h-51.306zm-8.254-17.896a117.491 117.491 0 0 0-6.581-10.302h60.197c1.006 3.338 1.764 6.84 2.586 10.302h-56.202zm-32.647-12.079c-22.448 16.983-54.393 36.028-70.084 36.028l-.177-.001-.183-.002-.182.011c-8.639.515-14.458-1.124-22.706-6.336-9.513-12.899-20.333-23.671-32.972-31.076l-.516-.263a57.662 57.662 0 0 0-21.996-4.898c34.068-23.601 61.972-25.792 74.237-25.252 38.396 1.664 55.685 12.08 74.58 31.789zm-220.278 211.221h-19.439l23.473-9.589zm-49.466 8.57l1.568 3.055 7.478-3.055h36.815l-3.841 9.133h-43.634c-.329-2.992-.457-6.079-.664-9.133h2.278zm38.499 17.506l-1.311 3.116h35.575l-2.135 6.655h-69.451c-.646-3.181-1.042-6.503-1.538-9.771h38.86zm19.33 27.73h-52.041c-1.009-3.227-1.767-6.619-2.604-9.964h64.878l-1.672 5.213h-2.75zm25.123-24.614h38.324l17.329-53.99a34.66 34.66 0 0 0 16.787-1.681l-2.958-9.441a27.109 27.109 0 0 1-24.707-3.436 25.144 25.144 0 0 1-10.61-19.267c-.618-9.784 3.299-16.002 6.694-19.495 5.145-5.294 12.936-8.257 19.831-7.549 12.23 1.258 18.004 7.888 18.72 21.496l9.37-.554a40.2 40.2 0 0 0-3.67-15.382l49.203-20.033-1.675-4.26c-2.212-5.63-4.481-11.248-6.82-16.812 25.103-14.619 63.758-28.452 84.891-26.001 1.474 6.262 1.392 10.556.941 18.022a45.873 45.873 0 0 1-2.122 10.432 79.341 79.341 0 0 0-2.745 12.333c-.543 4.141-.008 11.394.67 20.575.982 13.292 2.327 31.494-.386 38.886-2.024 2.753-18.45 3.459-33.795 1.447l-1.308 9.35c5.023.66 9.299.991 13.262 1.192.732 4.331.55 8.286-.326 8.974-2.03 1.259-11.981 1.578-21.302.69l-.958 9.389c2.701.259 6.951.581 11.423.58 1.999 0 4.009-.1 5.977-.262l.182 1.238c.46 3.108.982 6.634.348 8.602a5.829 5.829 0 0 1-1.648 2.258 17.49 17.49 0 0 0-3.354 4.501c-.927 1.866-.873 4.084-.792 7.442.187 7.704-.123 15.496-6.01 18.729-21.966 12.062-57.123 4.03-70.1-7.271l-6.513 7.015c8.182 7.126 21.283 12.437 35.438 14.629l-2.898 7.516h-131.06zm134.06 19.863l2.55-6.612c1.704.097 3.409.205 5.113.205a80.93 80.93 0 0 0 11.735-.943h58.113c-2.484 3.213-5.065 6.285-7.639 9.373-15.05-2.783-36.996-4.864-61.977 4.405a57.306 57.306 0 0 0-5.691 2.819l3.195-9.247h-5.399zm43.154-16.27a20.312 20.312 0 0 0 5.728-9.271h41.677q-3.177 4.715-6.483 9.271h-40.922zm7.214-17.495c.168-2.635.131-5.093.083-7.073-.02-.82-.031-1.733-.022-2.505h51.326c-1.901 3.227-3.81 6.439-5.798 9.578h-45.589zm8.488-36.066a16.475 16.475 0 0 0 2.484-9.286h58.8q-2.063 4.654-4.296 9.286h-56.988zm18.118-17.6c3.054-1.676 4.542-3.646 5.158-5.318a27.939 27.939 0 0 0 1.121-4.153h44.311c-1.192 3.16-2.638 6.312-3.939 9.471h-46.651zm7.221-17.888c.155-3.071.165-6.363.079-9.779h49.456c-1.014 3.256-2.184 6.517-3.314 9.779h-46.221zm-.259-18.134c-.174-3.023-.387-6.049-.604-9.042h55.196c-.751 3.01-1.509 6.02-2.36 9.042h-52.232zm-1.239-17.838c-.236-3.438-.398-6.503-.434-8.991h60.126c-.558 3-.996 5.973-1.655 8.991h-58.037zm.561-17.698c.493-2.246 1.033-4.34 1.595-6.301.27-.941.508-1.954.769-2.926h59.55c-.37 3.072-.701 6.126-1.181 9.227h-60.733zm3.912-17.704c.031-.354.12-.635.142-.999.196-3.255.292-6 .278-8.667h59.205c-.165 3.2-.435 6.425-.723 9.667h-58.902v-.001zm-267.25-25.878c48.221-88.122 129.901-147.328 203.25-147.328 19.866 0 38.331 4.369 54.884 12.986.531.277.985.652 1.511.937-12.909 17.351-21.625 31.536-34.345 55.909-18.256-14.304-37.389-20.156-66.63-21.422-36.377-1.543-77.716 18.531-113.332 55.169-33.917 34.888-38.362 72.913-36.12 98.667 2.197 25.232 11.881 47.348 20.959 56.652l-7.332 17.432-52.963 21.062-8.774-24.96c3.372-40.201 16.081-83.417 38.892-125.103zm-12.119 246.652l42.39-34.645h135.04l-153.431 60.497a117.63 117.63 0 0 1-23.999-25.852zm96.268 50.356c-19.867 0-38.333-4.37-54.885-12.987-2.856-1.487-5.436-3.322-8.12-5.028l149.573-59.853c-21.25 16.332-40.98 45.836-64.596 76.002a145.659 145.659 0 0 1-21.972 1.866zm104.149-35.935c.354-5.621.462-9.469 2.089-11.535l2.473-13.06c-9.916 2.246-13.902 22.852-15.221 31.463-18.923 11.484-38.437 19.799-57.866 24.502 19.908-28.37 44.285-64.464 71.689-74.634 16.214-6.017 32.378-7.334 51.132-4.644a295.67 295.67 0 0 1-54.295 47.908zM435.832 247.794c.366-4.976-3.841-8.593-9.493-9.076-6.521-.558-26.971 11.271-26.971 11.271s19.543 6.491 25.65 6.584c6.055.092 10.449-3.804 10.814-8.779z"/><path class="cls-2" d="M733.659 0l-144.374 536.624h532.731l127.984-536.624h-516.341z"/><path class="cls-1" d="M1115.845 66.249c1.945.034 11.988.03 13.68.702l-1.146 5.944c1.238.289 1.843-.616 2.274-1.366 3.287-5.726 13.122-7.71 19.075-5.122 9.386 4.082 4.722 13.986-6.611 59.933-10.63 43.091-9.266 42.83-12.126 42.825-4.038-.007-8.077.047-12.114-.008-1.428-.02-1.781-.679-1.394-2.354 1.812-7.838 20.468-82.553 20.877-84.365 1.726-7.653-10.447-6.855-12.608 3.442l-20.12 80.942c-.588 2.013-1.157 2.472-2.929 2.474-5.979.009-8.014.11-13.177-.129.736-4.63 21.622-87.455 24.418-100.935.253-1.218.682-2.005 1.9-1.983zM1077.37 75.133c-3.573.008-5.39 1.868-6.9 5.763-7.673 19.785 1.709 19.584-14.335 19.854-2.646.044-2.909-.462-2.761-3.346.59-11.533 5.643-26.182 16.529-29.794 14.131-4.69 29.114-1.482 26.598 11.383-14.371 73.5-27.144 83.945-12.828 81.754.167 2.38-.465 7.78-2.808 8.654-6.981 2.604-15.562 3.726-17.281-4.06a5.561 5.561 0 0 0-.723-1.204c-3.75 3.634-8.358 9.972-19.898 6.229-13.038-4.23-3.437-42.602 8.389-53.333 11.616-10.54 20.927-3.666 25.258-18.46 3.542-12.099 7.006-23.457.76-23.439zM1030.4 65.497c19.541.873 13.377 21.472 6.996 41.735-17.753.072-14.163 3.15-9.799-14.246 1.138-4.536 3.998-15.598.062-17.318-2.244-.981-4.515-.894-7.726 4.853-5.699 10.197-17.905 66.508-18.907 74.664-.399 3.244.632 5.915 2.739 6.459 9.06 2.344 11.636-12.077 16.76-37.498 4.402-1.3 8.553-.298 13.008.409-2.27 25.761-11.791 53.287-36.576 46.295-11.577-3.266-14.445-11.211-3.572-54.748 9.632-38.565 17.875-51.462 37.015-50.605zM985.479 36.257c.733-4.168-.487-3.695 13.165-3.6 1.027.007 2.054.187 3.273.307-.592 4.086.397-.226-3.853 16.785-.272 1.092-.674 1.95-1.961 1.943-4.574-.024-9.149.021-14.21.041a152.128 152.128 0 0 1 3.586-15.476zM993.221 67.552c-8.25 33.82-16.826 67.517-25.138 101.661-5.06.021-9.873.04-15.006.06.241-2.037 24.204-102.16 26.3-102.156 2.124.005 11.991-.204 13.844.435zM932.315 66.507c6.302.103 7.46-.182 12.292.135.144 3.87-2.124 7.066-1.735 11.257 3.024-4.096 5.396-12.282 14.021-12.441 14.696-.272 5.646 27.57.04 43.42-1.573 4.446-2.108 1.893-5.86 2.793a19.382 19.382 0 0 1-8.684-.084c.062-4.084 11.328-27.208 6.75-30.484-7.536-5.392-12.79 21.636-27.971 84.776-.982 4.088-.661 3.473-9.663 3.571-5.409.059-7.397.899-6.453-2.86 27.582-109.913 23.233-100.148 27.263-100.082zM900.486 65.304c19.4.572 12.673 32.846 7.358 51.895-1.569 5.625-.639 3.723-28.182 3.834-3.419 9.284-12.526 42.495-2.759 40.92 9.312-1.501 11.465-21.6 14.033-30.635.309-1.089.718-1.84 1.774-1.847 9.972-.064 8.047-.141 10.629.478-.571 9.898-5.465 37.708-22.603 40.897-25.985 4.834-25.227-13.123-20.183-36.887 10.273-48.389 20.666-69.224 39.933-68.655zM747.554 146.504a110.93 110.93 0 0 0-12.925-.256c-4.756.047-6.468 23.19-10.869 23.222-14.872.107-11.995.21-14.5-.397.504-2.61 50.604-143.992 53.863-143.984 17.334.039 16.654-2.271 15.525 6.827-3.228 26.019-14.456 131.694-16.041 137.388-28.554.114-14.963 3.549-15.053-22.801zM786.604 169.243c-2.182.081-10.857.467-12.958-.183.885-6.777 10.21-42.046 20.478-84.981 4.087-17.092 2.948-17.803 6.71-17.818 20.614-.083 9.238 1.467 11.468 7.364 5.223-5.769 7.585-9.177 17.653-7.908 6.112.771 6.723 4.719 8.069 8.798 1.386-.148 1.86-1.446 2.545-2.329 7.372-9.506 23.729-9.418 24.559 2.032.254 3.489-20.545 95.13-23.822 95.102-12.868-.113-14.31 1.486-13.287-2.536 23.556-92.632 22.783-88.886 17.471-89.34-5.047-.432-8.358 5.435-9.781 11.041-.515 2.029-19.009 76.37-19.472 78.638a2.225 2.225 0 0 1-2.408 2.1c-5.273.041-5.015.155-13.307.188.353-4.086 21.667-86.427 21.319-88.886-.84-5.924-9.771-3.467-12.003 4.189-3.505 12.024-8.191 32.705-20.614 82.292-.517 2.063-.472 2.158-2.62 2.237zM842.888 329.257c-2.661.333 3.837.224-41.023.351-4.387.012-9.264 15.651 30.87-141.794a1.741 1.741 0 0 1 1.831-1.446c2.677-.055 37.393-.755 39.89.293-1.116 6.839-.068 2.091-2.968 12.729-.55 2.018-.533 2.069-2.509 2.083 0 0-11.147-.008-21.567.033-1.163 3.451-11.096 44.129-11.688 47.212 1.421.065 2.38.157 3.336.145 14.447-.193 16.068-.906 17.729.882-4.867 17.848 1.559 14.162-24.796 14.269l-12.231 50.037a15.572 15.572 0 0 0 2.617.443c28.792-.218 25.468-4.627 20.508 14.763zM880.29 329.336c-.003-.719.047-31.995-.106-32.695l-.588-.194c-3.678 6.442-3.291 6.846-8.589 18.15-8.728 18.623-4.935 14.958-22.678 15.029-.618-2.235.833-3.309 1.481-4.612 32.096-64.625 27.12-35.448 25.341-76.924-.998-23.262-5.852-22.686 14.141-21.633 1.34.071 1.942.863 1.912 2.247-.269 12.173-1.497 21.198-.428 24.864 1.792-1.323 10.961-22.194 11.907-24.311a4.181 4.181 0 0 1 4.519-2.791c5.485.196 10.304-.29 13.496.468-.73 1.532-26.495 48.419-26.431 49.526.18 3.069 3.646 48.501 3.662 52.71-5.787.824-11.546.345-17.639.166zM928.592 331.377c-3.454-.618-4.257-2.895-6.353-5.837l-.771.257c-9.867 41.842-4.575 36.788-21.706 36.6-1.804-.021-2.117-.553-1.671-2.535.106-.472 31.994-131.11 32.503-132.938 24.319-1.743 11.162 1.781 14.367 6.322 5.333-5.24 8.975-9.338 18.112-6.922 13.132 3.47 1.931 46.943-1.808 61.191-5.265 20.067-14.072 47.188-32.673 43.862zM1007.123 271.79c-2.246 1.094-6.506.452-8.917-.033 2.737-7.905 14.418-36.197 3.789-30.337-6.103 3.364-8.259 18.507-24.849 85.774-.497 2.014-.791 2.277-2.709 2.288-13.121.072-14.006.789-12.979-3.451.418-1.725 23.894-97.625 24.456-99.302 4.924.102 9.822-.418 15.081.172l-1.687 7.401a1.026 1.026 0 0 0 1.728-.163c2.97-4.096 5.071-7.838 11.019-8.478 16.964-1.823 4.86 28.819 1.885 40.721-.943 3.776-2.591 6.505-6.817 5.408zM1034.576 284.175c-5.542 24.322-9.826 37.741-1.552 37.896 7.946.149 10.125-14.064 14.212-30.578.506-2.046.544-1.972 2.561-1.915 8.499.237 10.811-1.222 9.618 3.894-3.069 13.162-5.395 32.884-20.574 37.017-9.462 2.575-22.612 1.853-24.287-9.572-2.635-17.967 10.952-74.094 26.204-89.49 5.303-5.354 11.556-5.771 17.62-5.68 11.61.172 12.341 16.704 10.193 29.054-5.202 29.917-4.183 26.568-13.599 26.605l.001-.125c-19.78.078-19.464-1.194-20.397 2.894zM1103.371 237.016c-7.476-.676-9.513 11.791-10.584 19.278-1.029 7.189 4.961 9.658 9.878 13.081 9.276 6.457 11.121 17.363 8.409 28.902-4.457 18.955-11.238 30.926-28.579 33.178a19.801 19.801 0 0 1-13.763-3.003c-10.309-6.722-1.014-28.756 1.34-35.516a2.322 2.322 0 0 1 2.26-1.688c5.2-.402 8.574-1.146 11.458-.75-1.265 6.577-6.956 14.893-5.536 25.976.248 1.937 1.079 2.307 2.907 2.574 7.849 1.146 10.371-6.611 12.597-14.842 6.983-25.823-15.454-18.512-17.412-35.02-5.502-46.37 58.953-65.363 40.471-11.573-1.796 5.227-3.716 4.107-14.468 4.003 1.673-5.836 8.724-23.905 1.022-24.6zM1163.893 261.464c-3.931-.325-5.136.219-10.361-.22 1.903-6.03 9.487-25.034-.192-24.362-6.075.421-9.593 14.203-9.444 20.631.31 13.38 25.888 8.297 17.802 43.385-3.338 14.483-11.276 28.006-24.745 29.901-18.396 2.59-26.387-6.316-18.753-28.938 3.434-10.176 2.927-10.659 6.688-10.865 4.727-.259 5.204-.807 10.546-.828-3.55 11.235-6.219 14.647-5.902 25.075.199 6.54 14.344 8.197 16.841-19.227a13.282 13.282 0 0 0-3.245-9.963c-7.817-9.377-21.711-5.267-12.567-37.217 4.497-15.708 20.097-28.497 34.516-21.834 10.642 4.918 6.112 21.2 2.2 32.138-.597 1.661-1.548 2.475-3.384 2.324z"/><path class="cls-2" d="M945.304 240.088c-6.856 10.422-16.13 48.233-19.28 73.276l.408.057c-.047.892-.134 1.784-.136 2.677-.006 5.25 4.955 6.267 7.933 3.385 5.172-5.003 21.299-69.07 19.879-79.596-.574-4.248-6.48-3.333-8.804.202zM893.454 111.377a2.042 2.042 0 0 0 2.022-1.651c1.102-4.095 6.708-28.038 5.504-32.584-1.178-4.445-7.176-5.852-11.69 7.597-1.379 4.107-7.14 21.503-7.671 26.254 1.967.517 9.811.409 11.835.384zM1052.005 156.735c-.078 5.249 8.183 6.15 10.27-1.473 4.02-14.681 5.974-22.294 9.902-39.104-15.309 4.358-20.001 29-20.172 40.577zM1056.71 236.063c-.94-2.534-5.069-1.889-6.22-.5-5.363 6.464-12.438 31.771-12.868 35.858l13.699-.055c1.33-5.424 7.36-29.986 5.389-35.303zM748.779 130.489c1.976.046 12.826-66.565 12.149-67.254-.565.385-21.987 63.936-21.977 67.105 3.333.759 6.597.074 9.828.149z"/></g></svg>